<svg width="24" height="25" viewBox="0 0 24 25" fill="none" xmlns="http://www.w3.org/2000/svg">
<path d="M15.7 13.1772L9.7 19.1772C9.5 19.3772 9.3 19.4772 9 19.4772C8.7 19.4772 8.5 19.3772 8.3 19.1772C7.9 18.7772 7.9 18.1772 8.3 17.7772L13.6 12.4772L8.3 7.17723C7.9 6.77723 7.9 6.17723 8.3 5.77723C8.7 5.37723 9.3 5.37723 9.7 5.77723L15.7 11.7772C16.1 12.1772 16.1 12.7772 15.7 13.1772Z" fill="#14142B"/>
<mask id="mask0_5742_20915" style="mask-type:luminance" maskUnits="userSpaceOnUse" x="8" y="5" width="8" height="15">
<path d="M15.7 13.1772L9.7 19.1772C9.5 19.3772 9.3 19.4772 9 19.4772C8.7 19.4772 8.5 19.3772 8.3 19.1772C7.9 18.7772 7.9 18.1772 8.3 17.7772L13.6 12.4772L8.3 7.17723C7.9 6.77723 7.9 6.17723 8.3 5.77723C8.7 5.37723 9.3 5.37723 9.7 5.77723L15.7 11.7772C16.1 12.1772 16.1 12.7772 15.7 13.1772Z" fill="white"/>
</mask>
<g mask="url(#mask0_5742_20915)">
<rect y="0.477234" width="24" height="24" fill="#37474F"/>
</g>
</svg>
