<svg width="24" height="25" viewBox="0 0 24 25" fill="none" xmlns="http://www.w3.org/2000/svg">
<path fill-rule="evenodd" clip-rule="evenodd" d="M7.41421 11.4772H19C19.5523 11.4772 20 11.9249 20 12.4772C20 13.0295 19.5523 13.4772 19 13.4772H7.41421L12.7071 18.7701C13.0976 19.1607 13.0976 19.7938 12.7071 20.1843C12.3166 20.5749 11.6834 20.5749 11.2929 20.1843L4.29342 13.1849L4.29289 13.1843M4.29326 11.7698L11.2929 4.77013C11.6834 4.3796 12.3166 4.3796 12.7071 4.77013C13.0976 5.16065 13.0976 5.79382 12.7071 6.18434L7.41421 11.4772M4.29078 13.1822C4.19595 13.0868 4.12432 12.9771 4.07588 12.86L4.29078 13.1822ZM4.07588 12.86C4.02699 12.7421 4 12.6128 4 12.4772C4 12.2022 4.11106 11.953 4.29078 11.7723" fill="#14142B"/>
<mask id="mask0_5742_20944" style="mask-type:luminance" maskUnits="userSpaceOnUse" x="4" y="4" width="16" height="17">
<path fill-rule="evenodd" clip-rule="evenodd" d="M7.41421 11.4772H19C19.5523 11.4772 20 11.9249 20 12.4772C20 13.0295 19.5523 13.4772 19 13.4772H7.41421L12.7071 18.7701C13.0976 19.1607 13.0976 19.7938 12.7071 20.1843C12.3166 20.5749 11.6834 20.5749 11.2929 20.1843L4.29342 13.1849L4.29289 13.1843M4.29326 11.7698L11.2929 4.77013C11.6834 4.3796 12.3166 4.3796 12.7071 4.77013C13.0976 5.16065 13.0976 5.79382 12.7071 6.18434L7.41421 11.4772M4.29078 13.1822C4.19595 13.0868 4.12432 12.9771 4.07588 12.86L4.29078 13.1822ZM4.07588 12.86C4.02699 12.7421 4 12.6128 4 12.4772C4 12.2022 4.11106 11.953 4.29078 11.7723" fill="white"/>
</mask>
<g mask="url(#mask0_5742_20944)">
<rect y="0.477234" width="24" height="24" fill="#37474F"/>
</g>
</svg>
