<svg width="24" height="25" viewBox="0 0 24 25" fill="none" xmlns="http://www.w3.org/2000/svg">
<path fill-rule="evenodd" clip-rule="evenodd" d="M11.2929 4.77013C10.9024 5.16065 10.9024 5.79382 11.2929 6.18434L16.5858 11.4772H5C4.44772 11.4772 4 11.9249 4 12.4772C4 13.0295 4.44772 13.4772 5 13.4772H16.5858L11.2929 18.7701C10.9024 19.1607 10.9024 19.7938 11.2929 20.1843C11.6834 20.5749 12.3166 20.5749 12.7071 20.1843L19.7064 13.1851C19.7088 13.1826 19.7112 13.1802 19.7136 13.1778C19.8901 12.998 19.9992 12.7519 20 12.4802C20 12.4792 20 12.4782 20 12.4772C20 12.4762 20 12.4752 20 12.4742C19.9996 12.3397 19.9727 12.2115 19.9241 12.0945C19.8764 11.9792 19.8063 11.871 19.7136 11.7767C19.7112 11.7743 19.7089 11.7719 19.7065 11.7695M19.7065 11.7695L12.7071 4.77013C12.3166 4.3796 11.6834 4.3796 11.2929 4.77013" fill="#14142B"/>
<mask id="mask0_5742_20943" style="mask-type:luminance" maskUnits="userSpaceOnUse" x="4" y="4" width="16" height="17">
<path fill-rule="evenodd" clip-rule="evenodd" d="M11.2929 4.77013C10.9024 5.16065 10.9024 5.79382 11.2929 6.18434L16.5858 11.4772H5C4.44772 11.4772 4 11.9249 4 12.4772C4 13.0295 4.44772 13.4772 5 13.4772H16.5858L11.2929 18.7701C10.9024 19.1607 10.9024 19.7938 11.2929 20.1843C11.6834 20.5749 12.3166 20.5749 12.7071 20.1843L19.7064 13.1851C19.7088 13.1826 19.7112 13.1802 19.7136 13.1778C19.8901 12.998 19.9992 12.7519 20 12.4802C20 12.4792 20 12.4782 20 12.4772C20 12.4762 20 12.4752 20 12.4742C19.9996 12.3397 19.9727 12.2115 19.9241 12.0945C19.8764 11.9792 19.8063 11.871 19.7136 11.7767C19.7112 11.7743 19.7089 11.7719 19.7065 11.7695M19.7065 11.7695L12.7071 4.77013C12.3166 4.3796 11.6834 4.3796 11.2929 4.77013" fill="white"/>
</mask>
<g mask="url(#mask0_5742_20943)">
<rect y="0.477234" width="24" height="24" fill="#37474F"/>
</g>
</svg>
